# xmcd
#
# Track frame offsets:
#	150
#	21469
#	39909
#	66778
#	84808
#	107794
#	131778
#	148046
#	165616
#
# Disc length: 2450 seconds
#
# Revision: 1
# Processed by: cddbd v1.5.1PL2 Copyright (c) Steve Scherf et al.
# Submitted via: EasyCDDAExtractor 10.0.1.1
#
DISCID=75099009
DTITLE=Coronel Decker - Smith!! Salga con las Manos en Alto
DYEAR=2006
DGENRE=
TTITLE0=Carmen
TTITLE1=Estoy Bien
TTITLE2=Tiempos Grises
TTITLE3=Mi Mujer o mi Mamá
TTITLE4=Gata Negra
TTITLE5=160 Horas
TTITLE6=Opuestos
TTITLE7=De Sombras y Espíritus
TTITLE8=Coronel
EXTD=
EXTT0=
EXTT1=
EXTT2=
EXTT3=
EXTT4=
EXTT5=
EXTT6=
EXTT7=
EXTT8=
PLAYORDER=
